PathFileType	4	(X/Y/Z)	/Users/itak/Documents/Research/Walk-IL/dataset/trc/00219_00009.trc
DataRate	CameraRate	NumFrames	NumMarkers	Units	OrigDataRate	OrigDataStartFrame	OrigNumFrames
100.000000	100.000000	4	53	mm	100.000000	119	479
Frame#	Time	RPSI			LPSI			L3			STRN			T10			C7			CLAV			RBAK			LBAK			LSHO			LUPA			LAEL			LAOL			LWTS			LWPS			LFRA			LIFD			LHPS			LHTS			RSHO			RUPA			RAEL			RAOL			RWTS			RWPS			RFRA			RIFD			RHTS			RHPS			RBHD			LFHD			RFHD			LBHD			LHIP			RHIP			RASI			LASI			LKNE			LTHI			LANK			LTIP			LTOE			LMT1			LMT5			LHEE			RKNE			RANK			RTIP			RTOE			RMT1			RMT5			RHEE			RTHI			
		X1	Y1	Z1	X2	Y2	Z2	X3	Y3	Z3	X4	Y4	Z4	X5	Y5	Z5	X6	Y6	Z6	X7	Y7	Z7	X8	Y8	Z8	X9	Y9	Z9	X10	Y10	Z10	X11	Y11	Z11	X12	Y12	Z12	X13	Y13	Z13	X14	Y14	Z14	X15	Y15	Z15	X16	Y16	Z16	X17	Y17	Z17	X18	Y18	Z18	X19	Y19	Z19	X20	Y20	Z20	X21	Y21	Z21	X22	Y22	Z22	X23	Y23	Z23	X24	Y24	Z24	X25	Y25	Z25	X26	Y26	Z26	X27	Y27	Z27	X28	Y28	Z28	X29	Y29	Z29	X30	Y30	Z30	X31	Y31	Z31	X32	Y32	Z32	X33	Y33	Z33	X34	Y34	Z34	X35	Y35	Z35	X36	Y36	Z36	X37	Y37	Z37	X38	Y38	Z38	X39	Y39	Z39	X40	Y40	Z40	X41	Y41	Z41	X42	Y42	Z42	X43	Y43	Z43	X44	Y44	Z44	X45	Y45	Z45	X46	Y46	Z46	X47	Y47	Z47	X48	Y48	Z48	X49	Y49	Z49	X50	Y50	Z50	X51	Y51	Z51	X52	Y52	Z52	X53	Y53	Z53	

120	1.19	-982.4630737304688	1046.285400390625	-210.914794921875	-981.5711059570312	1051.396606445312	-90.51750183105469	-980.7534790039062	1131.282348632812	-139.7413024902344	-1227.63232421875	1318.943969726562	-120.6133422851562	-975.2643432617188	1255.630249023438	-155.0202941894531	-1035.299560546875	1518.15234375	-155.0623931884766	-1200.282836914062	1436.199584960938	-128.8853759765625	-970.8939208984375	1376.175048828125	-235.8172302246094	-1003.081970214844	1483.65771484375	-45.3425407409668	-1084.4345703125	1489.097412109375	23.36722183227539	-1042.596313476562	1373.226440429688	100.9199676513672	-1042.361694335938	1162.661499023438	134.8283233642578	-977.739013671875	1148.511474609375	76.46435546875	-1132.026000976562	924.2177734375	96.64212036132812	-1093.967163085938	910.1756591796875	171.2566070556641	-1059.121704101562	1055.650634765625	154.7145690917969	-1117.87255859375	733.2135620117188	102.3950424194336	-1104.56640625	820.6971435546875	169.6282806396484	-1155.846313476562	820.7874145507812	124.4677276611328	-1117.85400390625	1471.292358398438	-311.1766967773438	-1112.430908203125	1405.440673828125	-379.2806091308594	-1126.046630859375	1123.713500976562	-416.6629333496094	-1072.123779296875	1109.87841796875	-331.7809448242188	-1282.872192382812	935.2576904296875	-341.3551330566406	-1245.419067382812	910.4706420898438	-412.6050415039062	-1163.981079101562	1059.477294921875	-421.3862915039062	-1325.786865234375	747.2611083984375	-322.510009765625	-1342.48583984375	821.8988037109375	-343.345947265625	-1299.891235351562	811.2970581054688	-401.2218933105469	-1069.3681640625	1665.96728515625	-206.2481842041016	-1259.188232421875	1731.858764648438	-98.15531921386719	-1266.73095703125	1726.180908203125	-197.7411193847656	-1103.25830078125	1683.583374023438	-70.94924163818359	-1080.260009765625	989.1355590820312	51.76350784301758	-1081.673583984375	1007.214233398438	-315.1607666015625	-1179.540771484375	1048.9248046875	-275.3728942871094	-1181.160278320312	1032.999633789062	5.657423496246338	-1146.631103515625	502.7556762695312	17.84834098815918	-1136.942626953125	648.3213500976562	41.76609039306641	-890.486083984375	80.69707489013672	35.57904815673828	-1020.962646484375	305.8629150390625	37.59632873535156	-1090.551513671875	46.02912521362305	-35.65739059448242	-1022.765563964844	52.57487869262695	-72.74893951416016	-1010.917419433594	42.6296272277832	40.51613998413086	-830.6312866210938	111.0164337158203	-9.392035484313965	-1201.465698242188	526.6790161132812	-281.3869323730469	-1203.140014648438	38.3538703918457	-263.1593933105469	-1229.477416992188	409.9502563476562	-263.850830078125	-1414.636108398438	46.49906539916992	-210.0625610351562	-1356.8125	46.28965759277344	-171.9960784912109	-1313.651123046875	39.65793991088867	-286.0443420410156	-1140.050903320312	39.68893432617188	-204.2576141357422	-1166.880981445312	790.4641723632812	-324.2153015136719	
121	1.2	-977.0317993164062	1045.663208007812	-208.6795196533203	-976.5505981445312	1050.656494140625	-88.24588775634766	-975.6109619140625	1130.47607421875	-137.111572265625	-1222.67822265625	1318.10546875	-118.8976974487305	-970.2410278320312	1254.7939453125	-152.1852111816406	-1030.265625	1517.333740234375	-152.2629241943359	-1195.296020507812	1435.375732421875	-126.982795715332	-965.390380859375	1375.409301757812	-232.8021545410156	-998.5435180664062	1482.77490234375	-42.3385009765625	-1080.318115234375	1488.141235351562	25.86707496643066	-1039.637939453125	1372.082763671875	103.7622909545898	-1041.282348632812	1161.3134765625	137.4044494628906	-976.0574340820312	1146.813110351562	79.81854248046875	-1132.38525390625	923.6912231445312	97.58509063720703	-1095.169799804688	909.12939453125	172.5234375	-1059.083129882812	1054.396484375	156.8214569091797	-1120.61962890625	732.2306518554688	103.467414855957	-1106.887451171875	819.843994140625	170.7424011230469	-1157.553100585938	820.4974975585938	124.9367828369141	-1112.06640625	1470.517456054688	-308.8519592285156	-1106.303955078125	1404.680541992188	-376.9324951171875	-1119.485961914062	1123.003540039062	-414.6736145019531	-1066.27294921875	1109.085327148438	-329.9053649902344	-1276.216674804688	934.1781005859375	-340.1337585449219	-1238.441528320312	909.5237426757812	-411.2757873535156	-1157.351806640625	1058.7060546875	-419.5896606445312	-1318.902465820312	746.0224609375	-321.6837768554688	-1335.653076171875	820.7026977539062	-342.4793090820312	-1292.757568359375	810.2327270507812	-400.1839904785156	-1064.30078125	1665.20751953125	-203.8805999755859	-1254.405517578125	1730.948486328125	-96.23252105712891	-1261.732666015625	1725.290893554688	-195.8399200439453	-1098.420288085938	1682.811889648438	-68.64631652832031	-1075.457397460938	988.1324462890625	53.83110046386719	-1076.111694335938	1006.76513671875	-313.1556701660156	-1173.67529296875	1048.28515625	-273.3224182128906	-1176.332153320312	1031.942626953125	7.518673896789551	-1137.930053710938	501.7356567382812	18.605712890625	-1129.511352539062	647.2284545898438	43.08162689208984	-888.6892700195312	75.78108978271484	36.60773086547852	-1015.144958496094	302.8977661132812	38.69633483886719	-1089.138427734375	46.08593368530273	-36.25831604003906	-1021.185119628906	51.12211227416992	-72.56514739990234	-1009.919616699219	40.87367248535156	40.75721740722656	-827.801513671875	105.0181274414062	-7.875380992889404	-1198.07177734375	526.7115478515625	-280.55517578125	-1203.115844726562	38.28153991699219	-263.2242126464844	-1226.756713867188	410.15478515625	-263.3321533203125	-1414.60791015625	46.52260971069336	-210.1628723144531	-1356.727172851562	46.35882949829102	-172.1003265380859	-1313.678955078125	39.51464080810547	-286.1965637207031	-1140.052490234375	39.68789291381836	-204.2538909912109	-1162.836547851562	791.5841674804688	-323.4808654785156	
122	1.21	-971.4320068359375	1045.009155273438	-206.3808441162109	-971.38623046875	1049.912475585938	-85.93152618408203	-970.3488159179688	1129.662475585938	-134.4251861572266	-1217.626831054688	1317.2421875	-117.1147003173828	-965.108642578125	1253.9609375	-149.2578430175781	-1025.149047851562	1516.511352539062	-149.3894195556641	-1190.220092773438	1434.529907226562	-125.0051956176758	-959.7655639648438	1374.655883789062	-229.6945037841797	-993.9266357421875	1481.881103515625	-39.25464248657227	-1076.107055664062	1487.168212890625	28.44408416748047	-1036.637817382812	1370.9140625	106.6703643798828	-1040.19775390625	1159.957153320312	140.0259857177734	-974.4090576171875	1145.075927734375	83.248779296875	-1132.826049804688	923.20751953125	98.52558135986328	-1096.488647460938	908.1094360351562	173.7937469482422	-1059.116577148438	1053.14306640625	158.9570770263672	-1123.4296875	731.31591796875	104.5743255615234	-1109.340209960938	819.0411376953125	171.84619140625	-1159.390380859375	820.28857421875	125.4017333984375	-1106.19775390625	1469.715209960938	-306.4511108398438	-1100.082641601562	1403.8779296875	-374.4915161132812	-1112.814331054688	1122.257934570312	-412.5929260253906	-1060.2939453125	1108.361328125	-327.9966430664062	-1269.370483398438	932.9681396484375	-338.9165649414062	-1231.251586914062	908.5050659179688	-409.9570617675781	-1150.569580078125	1057.897705078125	-417.7250061035156	-1311.73583984375	744.631591796875	-320.9539184570312	-1328.58056640625	819.3533325195312	-341.677978515625	-1285.364868164062	809.0641479492188	-399.2059936523438	-1059.159057617188	1664.448120117188	-201.4373168945312	-1249.554321289062	1730.025634765625	-94.25079345703125	-1256.662475585938	1724.380615234375	-193.8728942871094	-1093.548583984375	1682.045532226562	-66.28029632568359	-1070.502075195312	987.1817626953125	55.96988677978516	-1070.389526367188	1006.272155761719	-311.1035461425781	-1167.647705078125	1047.635620117188	-271.2267456054688	-1171.357543945312	1030.882080078125	9.418886184692383	-1129.225830078125	500.7901306152344	19.49257850646973	-1122.041015625	646.2142333984375	44.52095413208008	-886.9943237304688	71.16541290283203	36.97799682617188	-1009.3125	300.0339660644531	39.49114608764648	-1088.044067382812	46.23011779785156	-36.94619750976562	-1019.924621582031	49.81875991821289	-72.62557983398438	-1009.1005859375	39.61969757080078	40.76284790039062	-825.1603393554688	99.14110565185547	-7.20384407043457	-1194.515869140625	526.7122802734375	-279.6752319335938	-1203.067138671875	38.19236755371094	-263.2869567871094	-1223.904663085938	410.3426208496094	-262.7686157226562	-1414.539184570312	46.59603500366211	-210.295654296875	-1356.57470703125	46.43944549560547	-172.2343444824219	-1313.702514648438	39.36341857910156	-286.3342895507812	-1140.04931640625	39.68625259399414	-204.2467956542969	-1158.798217773438	793.2742919921875	-323.1164245605469	
123	1.22	-965.663330078125	1044.332397460938	-204.0356140136719	-966.0739135742188	1049.186157226562	-83.59058380126953	-964.9735717773438	1128.857299804688	-131.7087097167969	-1212.47705078125	1316.369018554688	-115.2752151489258	-959.8624267578125	1253.155883789062	-146.2556304931641	-1019.953918457031	1515.705810546875	-146.4498291015625	-1185.068359375	1433.67822265625	-122.9655380249023	-954.0208129882812	1373.940307617188	-226.5052642822266	-989.232666015625	1480.999267578125	-36.10134887695312	-1071.8095703125	1486.191650390625	31.08757972717285	-1033.593139648438	1369.736572265625	109.6248779296875	-1039.109741210938	1158.613647460938	142.6829681396484	-972.7869873046875	1143.321655273438	86.74057769775391	-1133.328002929688	922.7835083007812	99.46311950683594	-1097.920166015625	907.1446533203125	175.0770416259766	-1059.216796875	1051.91259765625	161.1094207763672	-1126.347534179688	730.5161743164062	105.675651550293	-1111.897094726562	818.3081665039062	172.9439849853516	-1161.340454101562	820.1749877929688	125.8593063354492	-1100.251098632812	1468.91015625	-303.9833679199219	-1093.76513671875	1403.055908203125	-371.9665832519531	-1106.027954101562	1121.49609375	-410.4124450683594	-1054.189453125	1107.717895507812	-326.0422973632812	-1262.337890625	931.6485595703125	-337.7098999023438	-1223.849609375	907.4349975585938	-408.6497802734375	-1143.614501953125	1057.071533203125	-415.7861633300781	-1304.2900390625	743.1126098632812	-320.3275756835938	-1321.260498046875	817.8693237304688	-340.9485168457031	-1277.710815429688	807.8131103515625	-398.2940368652344	-1053.949340820312	1663.702880859375	-198.9229736328125	-1244.642456054688	1729.114013671875	-92.21073150634766	-1251.526977539062	1723.465576171875	-191.8421630859375	-1088.653686523438	1681.296997070312	-63.85400009155273	-1065.376342773438	986.3228759765625	58.16569519042969	-1064.507568359375	1005.725769042969	-309.013427734375	-1161.476196289062	1046.985107421875	-269.099853515625	-1166.230224609375	1029.846801757812	11.35339260101318	-1120.552978515625	499.9537658691406	20.50686073303223	-1114.556640625	645.31591796875	46.06886291503906	-885.3456420898438	66.93531036376953	36.70265579223633	-1003.470275878906	297.3363952636719	39.96585845947266	-1087.203247070312	46.40158462524414	-37.64444732666016	-1018.917419433594	48.6231803894043	-72.91049957275391	-1008.375915527344	38.81238555908203	40.59244918823242	-822.7046508789062	93.49640655517578	-7.386516571044922	-1190.796264648438	526.6840209960938	-278.74072265625	-1202.991088867188	38.08564758300781	-263.3492126464844	-1220.923706054688	410.5166931152344	-262.1561279296875	-1414.411987304688	46.76567459106445	-210.4685363769531	-1356.352783203125	46.55006790161133	-172.4011840820312	-1313.718383789062	39.21675872802734	-286.4445495605469	-1140.034301757812	39.67465591430664	-204.2420959472656	-1154.596923828125	795.5211791992188	-323.1995544433594	
